<svg width="160" height="53" viewBox="0 0 160 53" version="1.1" xmlns="http://www.w3.org/2000/svg" xmlns:xlink="http://www.w3.org/1999/xlink">
<title>Logo</title>
<desc>Created using Figma</desc>
<g id="Canvas" transform="translate(-9256 -9107)">
<g id="Logo">
<use xlink:href="#path0_fill" transform="translate(9256 9107)" fill="#8B8B8B"/>
<use xlink:href="#path1_fill" transform="translate(9256 9107)" fill="#8B8B8B"/>
<use xlink:href="#path2_fill" transform="translate(9256 9107)" fill="#8B8B8B"/>
<use xlink:href="#path3_fill" transform="translate(9256 9107)" fill="#8B8B8B"/>
<use xlink:href="#path4_fill" transform="translate(9256 9107)" fill="#8B8B8B"/>
<use xlink:href="#path5_fill" transform="translate(9256 9107)" fill="#8B8B8B"/>
<use xlink:href="#path6_fill" transform="translate(9256 9107)" fill="#8B8B8B"/>
<use xlink:href="#path7_fill" transform="translate(9256 9107)" fill="#8B8B8B"/>
<use xlink:href="#path8_fill" transform="translate(9256 9107)" fill="#8B8B8B"/>
<use xlink:href="#path9_fill" transform="translate(9256 9107)" fill="#8B8B8B"/>
<use xlink:href="#path10_fill" transform="translate(9256 9107)" fill="#8B8B8B"/>
<use xlink:href="#path11_fill" transform="translate(9256 9107)" fill="#8B8B8B"/>
<use xlink:href="#path12_fill" transform="translate(9256 9107)" fill="#8B8B8B"/>
</g>
</g>
<defs>
<path id="path0_fill" d="M 79.3431 23.4186L 81.1254 19.2254L 88.771 19.2254L 90.5533 23.4186L 94.5052 23.4186L 86.7563 5.19646L 83.1918 5.19646L 75.4428 23.4186L 79.3431 23.4186ZM 84.9482 9.85553L 87.5828 16.1453L 82.2877 16.1453L 84.9482 9.85553Z"/>
<path id="path1_fill" d="M 105.219 18.7337C 104.599 19.6913 103.436 20.4161 102.3 20.4161C 100.957 20.4161 99.8459 19.6655 99.8459 17.6724L 99.8459 10.5026L 96.2039 10.5026L 96.2039 18.423C 96.2039 21.7362 97.9087 23.7551 100.905 23.7551C 102.636 23.7551 104.056 23.1339 105.219 21.8656L 105.219 23.4186L 108.861 23.4186L 108.861 10.5026L 105.219 10.5026L 105.219 18.7337Z"/>
<path id="path2_fill" d="M 113.643 19.4066C 113.643 22.3056 115.038 23.7551 117.853 23.7551C 119.17 23.7551 120.178 23.5221 120.927 23.0562L 120.927 20.0278C 120.307 20.3384 119.687 20.4937 119.041 20.4937C 117.801 20.4937 117.285 19.9502 117.285 18.6819L 117.285 13.5569L 120.953 13.5569L 120.953 10.5026L 117.285 10.5026L 117.285 6.95656L 113.643 6.95656L 113.643 10.5026L 111.111 10.5026L 111.111 13.5569L 113.643 13.5569L 113.643 19.4066Z"/>
<path id="path3_fill" d="M 127.575 19.536C 126.904 18.8372 126.568 17.983 126.568 16.9477C 126.568 15.9123 126.904 15.0582 127.575 14.3852C 128.247 13.6863 129.099 13.3498 130.133 13.3498C 131.166 13.3498 132.018 13.6863 132.69 14.3852C 133.361 15.0582 133.697 15.9123 133.697 16.9477C 133.697 17.983 133.361 18.8372 132.69 19.536C 132.018 20.2349 131.166 20.5714 130.133 20.5714C 129.099 20.5714 128.247 20.2349 127.575 19.536ZM 122.978 16.9477C 122.978 18.889 123.649 20.4937 124.993 21.8138C 126.336 23.108 128.04 23.7551 130.133 23.7551C 132.225 23.7551 133.93 23.108 135.273 21.8138C 136.616 20.4937 137.288 18.889 137.288 16.9477C 137.288 15.0582 136.616 13.4534 135.273 12.1333C 133.93 10.8132 132.225 10.1661 130.133 10.1661C 128.04 10.1661 126.336 10.8132 124.993 12.1333C 123.649 13.4275 122.978 15.0323 122.978 16.9477Z"/>
<path id="path4_fill" d="M 90.5791 46.8372L 90.5791 43.4982L 80.7379 43.4982L 80.7379 38.8391L 88.4352 38.8391L 88.4352 35.5519L 80.7379 35.5519L 80.7379 32.0576L 90.295 32.0576L 90.295 28.7186L 77.0184 28.7186L 77.0184 46.8372L 90.5791 46.8372Z"/>
<path id="path5_fill" d="M 92.4298 33.9212L 96.9242 40.1074L 91.9907 46.8372L 96.0201 46.8372L 99.0422 42.6958L 102.038 46.8372L 106.12 46.8372L 101.212 40.0816L 105.732 33.9212L 101.703 33.9212L 99.0938 37.545L 96.5109 33.9212L 92.4298 33.9212Z"/>
<path id="path6_fill" d="M 116.22 33.5847C 114.361 33.5847 112.94 34.2318 111.984 35.5001L 111.984 33.9212L 108.342 33.9212L 108.342 52.014L 111.984 52.014L 111.984 45.2583C 112.992 46.5266 114.387 47.1737 116.22 47.1737C 117.977 47.1737 119.423 46.5266 120.56 45.2324C 121.722 43.9123 122.29 42.3076 122.29 40.3922C 122.29 38.4509 121.722 36.8461 120.56 35.5519C 119.423 34.2318 117.977 33.5847 116.22 33.5847ZM 115.187 36.7684C 116.195 36.7684 117.047 37.1049 117.693 37.8038C 118.339 38.5027 118.674 39.3568 118.674 40.3922C 118.674 41.4016 118.339 42.2558 117.693 42.9547C 117.047 43.6535 116.195 43.99 115.187 43.99C 113.767 43.99 112.578 43.1876 111.984 42.0746L 111.984 38.7097C 112.578 37.5967 113.767 36.7684 115.187 36.7684Z"/>
<path id="path7_fill" d="M 131.268 47.1737C 133.386 47.1737 135.013 46.7337 136.175 45.8536L 136.175 42.9288C 134.858 43.6794 133.489 44.0676 132.043 44.0676C 129.77 44.0676 128.117 43.1358 127.729 41.3757L 136.976 41.3757L 136.976 40.418C 136.976 38.5027 136.408 36.8979 135.297 35.5778C 134.187 34.2577 132.714 33.5847 130.829 33.5847C 128.84 33.5847 127.212 34.2318 125.973 35.5519C 124.733 36.8461 124.113 38.4509 124.113 40.3663C 124.113 42.4111 124.81 44.0676 126.179 45.3101C 127.548 46.5525 129.253 47.1737 131.268 47.1737ZM 127.729 39.0462C 127.91 37.5191 129.021 36.4578 130.674 36.4578C 132.301 36.4578 133.308 37.6226 133.386 39.0462L 127.729 39.0462Z"/>
<path id="path8_fill" d="M 143.414 46.8372L 143.414 39.305C 143.931 38.1403 145.429 37.0532 147.185 37.0532C 147.624 37.0532 148.012 37.1049 148.322 37.1826L 148.322 33.6106C 148.218 33.5847 148.089 33.5847 147.908 33.5847C 146.953 33.5847 146.049 33.8436 145.222 34.3354C 144.396 34.8272 143.801 35.4225 143.414 36.0955L 143.414 33.9212L 139.772 33.9212L 139.772 46.8372L 143.414 46.8372Z"/>
<path id="path9_fill" d="M 152.69 42.8252C 152.69 45.7242 154.085 47.1737 156.9 47.1737C 158.218 47.1737 159.225 46.9407 159.974 46.4748L 159.974 43.4464C 159.354 43.757 158.734 43.9123 158.089 43.9123C 156.849 43.9123 156.332 43.3688 156.332 42.1005L 156.332 36.9755L 160 36.9755L 160 33.9212L 156.332 33.9212L 156.332 30.3752L 152.69 30.3752L 152.69 33.9212L 150.159 33.9212L 150.159 36.9755L 152.69 36.9755L 152.69 42.8252Z"/>
<path id="path10_fill" d="M 47.7234 15.5579C 38.1617 24.1759 29.8748 31.5675 29.333 32.0194L 28.2812 32.8263L 19.1338 29.2435C 14.0661 27.3069 8.96649 25.3057 7.75533 24.8538L 5.55614 24.0146L 6.48044 25.1443C 7.75533 26.6613 32.2334 53.0966 32.2971 52.9997C 32.584 52.7092 65.2532 0.0646661 65.1895 0.000111112C 65.1257 -0.0321664 57.2851 6.97205 47.7234 15.5579Z"/>
<path id="path11_fill" d="M 22.3211 1.16214C 10.2096 2.3564 0.743452 12.4915 0.0422582 25.0152C -0.658936 37.0547 7.43667 48.0613 19.0701 50.9663C 21.8749 51.6764 27.1657 52.0314 27.4526 51.5473C 27.6119 51.2568 12.9187 34.8921 4.40878 25.919L 2.97452 24.3696L 3.67572 22.8849C 4.5044 21.2064 3.83508 21.1419 9.95459 23.4336C 12.2175 24.2728 14.098 24.9506 14.098 24.9184C 14.1299 24.8861 14.3849 24.0146 14.6717 23.014C 16.5522 16.7844 23.9147 13.5567 29.7155 16.4294C 31.7553 17.4623 34.0183 19.8831 34.847 21.9488C 35.1976 22.7558 35.5482 23.4013 35.6438 23.4013C 35.7394 23.4013 38.2892 21.2065 41.2852 18.5274L 46.7673 13.6535L 45.7473 12.1365C 40.5521 4.45444 31.5641 0.226089 22.3211 1.16214Z"/>
<path id="path12_fill" d="M 43.9624 38.2167C 40.7751 43.3811 38.1616 47.674 38.1616 47.7709C 38.1616 48.2873 41.2213 45.7374 43.3568 43.4134C 45.1735 41.4445 46.1616 40.0243 47.2452 37.8294C 48.5839 35.0858 50.1456 29.9537 49.8907 29.179C 49.8269 29.0177 47.1815 33.0846 43.9624 38.2167Z"/>
</defs>
</svg>
