<svg width="131" height="43" viewBox="0 0 131 43" version="1.1" xmlns="http://www.w3.org/2000/svg" xmlns:xlink="http://www.w3.org/1999/xlink">
<title>Logo</title>
<desc>Created using Figma</desc>
<g id="Canvas" transform="translate(-9256 -5974)">
<g id="Logo">
<g id="Auto Expert">
<use xlink:href="#path0_fill" transform="translate(9317 5977)" fill="#34373C"/>
<use xlink:href="#path1_fill" transform="translate(9317 5977)" fill="#61A2B6"/>
</g>
<g id="Logo">
<g id="Vector">
<use xlink:href="#path2_fill" transform="matrix(0.1 0 0 -0.1 9260.52 6017)" fill="#61A2B6"/>
</g>
<g id="Vector">
<use xlink:href="#path3_fill" transform="matrix(0.1 0 0 -0.1 9256 6016)" fill="#34373C"/>
</g>
<g id="Vector">
<use xlink:href="#path4_fill" transform="matrix(0.1 0 0 -0.1 9287.03 6012.81)" fill="#34373C"/>
</g>
</g>
</g>
</g>
<defs>
<path id="path0_fill" d="M 3.507 16L 4.956 12.598L 11.172 12.598L 12.621 16L 15.834 16L 9.534 1.216L 6.636 1.216L 0.336 16L 3.507 16ZM 8.064 4.996L 10.206 10.099L 5.901 10.099L 8.064 4.996ZM 24.5441 12.199C 24.0401 12.976 23.0951 13.564 22.1711 13.564C 21.0791 13.564 20.1761 12.955 20.1761 11.338L 20.1761 5.521L 17.2151 5.521L 17.2151 11.947C 17.2151 14.635 18.6011 16.273 21.0371 16.273C 22.4441 16.273 23.5991 15.769 24.5441 14.74L 24.5441 16L 27.5051 16L 27.5051 5.521L 24.5441 5.521L 24.5441 12.199ZM 31.393 12.745C 31.393 15.097 32.527 16.273 34.816 16.273C 35.887 16.273 36.706 16.084 37.315 15.706L 37.315 13.249C 36.811 13.501 36.307 13.627 35.782 13.627C 34.774 13.627 34.354 13.186 34.354 12.157L 34.354 7.999L 37.336 7.999L 37.336 5.521L 34.354 5.521L 34.354 2.644L 31.393 2.644L 31.393 5.521L 29.335 5.521L 29.335 7.999L 31.393 7.999L 31.393 12.745ZM 42.7206 12.85C 42.1746 12.283 41.9016 11.59 41.9016 10.75C 41.9016 9.91 42.1746 9.217 42.7206 8.671C 43.2666 8.104 43.9596 7.831 44.7996 7.831C 45.6396 7.831 46.3326 8.104 46.8786 8.671C 47.4246 9.217 47.6976 9.91 47.6976 10.75C 47.6976 11.59 47.4246 12.283 46.8786 12.85C 46.3326 13.417 45.6396 13.69 44.7996 13.69C 43.9596 13.69 43.2666 13.417 42.7206 12.85ZM 38.9826 10.75C 38.9826 12.325 39.5286 13.627 40.6206 14.698C 41.7126 15.748 43.0986 16.273 44.7996 16.273C 46.5006 16.273 47.8866 15.748 48.9786 14.698C 50.0706 13.627 50.6166 12.325 50.6166 10.75C 50.6166 9.217 50.0706 7.915 48.9786 6.844C 47.8866 5.773 46.5006 5.248 44.7996 5.248C 43.0986 5.248 41.7126 5.773 40.6206 6.844C 39.5286 7.894 38.9826 9.196 38.9826 10.75Z"/>
<path id="path1_fill" d="M 12.642 35L 12.642 32.291L 4.641 32.291L 4.641 28.511L 10.899 28.511L 10.899 25.844L 4.641 25.844L 4.641 23.009L 12.411 23.009L 12.411 20.3L 1.617 20.3L 1.617 35L 12.642 35ZM 14.1466 24.521L 17.8006 29.54L 13.7896 35L 17.0656 35L 19.5226 31.64L 21.9586 35L 25.2766 35L 21.2866 29.519L 24.9616 24.521L 21.6856 24.521L 19.5646 27.461L 17.4646 24.521L 14.1466 24.521ZM 33.4888 24.248C 31.9768 24.248 30.8218 24.773 30.0448 25.802L 30.0448 24.521L 27.0838 24.521L 27.0838 39.2L 30.0448 39.2L 30.0448 33.719C 30.8638 34.748 31.9978 35.273 33.4888 35.273C 34.9168 35.273 36.0928 34.748 37.0168 33.698C 37.9618 32.627 38.4238 31.325 38.4238 29.771C 38.4238 28.196 37.9618 26.894 37.0168 25.844C 36.0928 24.773 34.9168 24.248 33.4888 24.248ZM 32.6488 26.831C 33.4678 26.831 34.1608 27.104 34.6858 27.671C 35.2108 28.238 35.4838 28.931 35.4838 29.771C 35.4838 30.59 35.2108 31.283 34.6858 31.85C 34.1608 32.417 33.4678 32.69 32.6488 32.69C 31.4938 32.69 30.5278 32.039 30.0448 31.136L 30.0448 28.406C 30.5278 27.503 31.4938 26.831 32.6488 26.831ZM 45.7224 35.273C 47.4444 35.273 48.7674 34.916 49.7124 34.202L 49.7124 31.829C 48.6414 32.438 47.5284 32.753 46.3524 32.753C 44.5044 32.753 43.1604 31.997 42.8454 30.569L 50.3634 30.569L 50.3634 29.792C 50.3634 28.238 49.9014 26.936 48.9984 25.865C 48.0954 24.794 46.8984 24.248 45.3654 24.248C 43.7484 24.248 42.4254 24.773 41.4174 25.844C 40.4094 26.894 39.9054 28.196 39.9054 29.75C 39.9054 31.409 40.4724 32.753 41.5854 33.761C 42.6984 34.769 44.0844 35.273 45.7224 35.273ZM 42.8454 28.679C 42.9924 27.44 43.8954 26.579 45.2394 26.579C 46.5624 26.579 47.3814 27.524 47.4444 28.679L 42.8454 28.679ZM 55.5975 35L 55.5975 28.889C 56.0175 27.944 57.2355 27.062 58.6635 27.062C 59.0205 27.062 59.3355 27.104 59.5875 27.167L 59.5875 24.269C 59.5035 24.248 59.3985 24.248 59.2515 24.248C 58.4745 24.248 57.7395 24.458 57.0675 24.857C 56.3955 25.256 55.9125 25.739 55.5975 26.285L 55.5975 24.521L 52.6365 24.521L 52.6365 35L 55.5975 35ZM 63.1391 31.745C 63.1391 34.097 64.2731 35.273 66.5621 35.273C 67.6331 35.273 68.4521 35.084 69.0611 34.706L 69.0611 32.249C 68.5571 32.501 68.0531 32.627 67.5281 32.627C 66.5201 32.627 66.1001 32.186 66.1001 31.157L 66.1001 26.999L 69.0821 26.999L 69.0821 24.521L 66.1001 24.521L 66.1001 21.644L 63.1391 21.644L 63.1391 24.521L 61.0811 24.521L 61.0811 26.999L 63.1391 26.999L 63.1391 31.745Z"/>
<path id="path2_fill" d="M 342.825 303.776C 265.087 233.856 197.714 173.886 193.309 170.22L 184.758 163.673L 110.388 192.741C 69.187 208.454 27.7266 224.69 17.8798 228.356L 0 235.165L 7.51469 225.999C 17.8798 213.691 216.889 -0.783469 217.408 0.00215297C 219.74 2.35902 485.345 429.475 484.827 429.999C 484.309 430.261 420.564 373.434 342.825 303.776Z"/>
<path id="path3_fill" d="M 181.473 410.593C 83.0051 400.904 6.04436 318.676 0.343565 217.069C -5.35723 119.39 60.4611 30.0905 155.043 6.52189C 177.846 0.760666 220.861 -2.11995 223.193 1.80816C 224.489 4.16503 105.031 136.935 35.844 209.736L 24.1833 222.306L 29.8841 234.352C 36.6214 247.97 31.1797 248.493 80.9321 229.9C 99.3302 223.092 114.619 217.592 114.619 217.854C 114.878 218.116 116.951 225.187 119.283 233.305C 134.571 283.846 194.43 310.034 241.591 286.727C 258.175 278.347 276.573 258.706 283.31 241.947C 286.161 235.4 289.011 230.162 289.789 230.162C 290.566 230.162 311.296 247.97 335.654 269.705L 380.224 309.248L 371.932 321.556C 329.694 383.882 256.62 418.188 181.473 410.593Z"/>
<path id="path4_fill" d="M 47.1612 78.0611C 21.2484 36.1613 0 1.33202 0 0.546403C 0 -3.64358 24.8762 17.0445 42.2377 35.8994C 57.008 51.8737 65.0409 63.3961 73.8512 81.2036C 84.7346 103.463 97.4318 145.101 95.3588 151.386C 94.8406 152.695 73.333 119.699 47.1612 78.0611Z"/>
</defs>
</svg>
